<mxfile host="app.diagrams.net" agent="Mozilla/5.0 (Windows NT 10.0; Win64; x64) AppleWebKit/537.36 (KHTML, like Gecko) Chrome/129.0.0.0 Safari/537.36" version="24.7.17">
  <diagram id="6a731a19-8d31-9384-78a2-239565b7b9f0" name="Page-1">
    <mxGraphModel dx="1235" dy="665" grid="1" gridSize="10" guides="1" tooltips="1" connect="1" arrows="1" fold="1" page="1" pageScale="1" pageWidth="1169" pageHeight="827" background="none" math="0" shadow="0">
      <root>
        <mxCell id="0" />
        <mxCell id="1" parent="0" />
        <mxCell id="2" value="start" style="shape=mxgraph.flowchart.terminator;strokeWidth=2;gradientColor=none;gradientDirection=north;fontStyle=0;html=1;" parent="1" vertex="1">
          <mxGeometry x="260" y="60" width="120" height="30" as="geometry" />
        </mxCell>
        <mxCell id="7" style="fontStyle=1;strokeColor=#003366;strokeWidth=1;html=1;entryX=0.5;entryY=0;entryDx=0;entryDy=0;" parent="1" source="2" target="hKAx5rV73xENZ0CXXmDG-55" edge="1">
          <mxGeometry relative="1" as="geometry">
            <mxPoint x="320" y="130" as="targetPoint" />
          </mxGeometry>
        </mxCell>
        <mxCell id="8" style="fontStyle=1;strokeColor=#003366;strokeWidth=1;html=1;exitX=0.5;exitY=1;exitDx=0;exitDy=0;entryX=0.5;entryY=0;entryDx=0;entryDy=0;entryPerimeter=0;" parent="1" source="hKAx5rV73xENZ0CXXmDG-55" target="hKAx5rV73xENZ0CXXmDG-57" edge="1">
          <mxGeometry relative="1" as="geometry">
            <mxPoint x="320" y="210" as="sourcePoint" />
            <mxPoint x="320" y="250" as="targetPoint" />
          </mxGeometry>
        </mxCell>
        <mxCell id="9" style="entryX=0.5;entryY=0;fontStyle=1;strokeColor=#003366;strokeWidth=1;html=1;exitX=0.5;exitY=1;exitDx=0;exitDy=0;exitPerimeter=0;entryDx=0;entryDy=0;" parent="1" source="hKAx5rV73xENZ0CXXmDG-57" target="hKAx5rV73xENZ0CXXmDG-78" edge="1">
          <mxGeometry relative="1" as="geometry">
            <mxPoint x="320" y="360" as="sourcePoint" />
            <mxPoint x="320" y="380" as="targetPoint" />
          </mxGeometry>
        </mxCell>
        <mxCell id="11" value="Não" style="text;fontStyle=0;html=1;strokeColor=none;gradientColor=none;fillColor=none;strokeWidth=2;" parent="1" vertex="1">
          <mxGeometry x="322" y="345" width="40" height="26" as="geometry" />
        </mxCell>
        <mxCell id="40" value="end" style="shape=mxgraph.flowchart.terminator;strokeWidth=2;gradientColor=none;gradientDirection=north;fontStyle=0;html=1;" parent="1" vertex="1">
          <mxGeometry x="330.5" y="770" width="120" height="30" as="geometry" />
        </mxCell>
        <mxCell id="hKAx5rV73xENZ0CXXmDG-55" value="Visualizar Pagamentos efetuados e por efetuar" style="rounded=1;whiteSpace=wrap;html=1;" vertex="1" parent="1">
          <mxGeometry x="260" y="140" width="120" height="60" as="geometry" />
        </mxCell>
        <mxCell id="hKAx5rV73xENZ0CXXmDG-57" value="Existem&lt;div&gt;pagamentos por&lt;/div&gt;&lt;div&gt;efetuar ?&lt;/div&gt;" style="shape=mxgraph.flowchart.decision;strokeWidth=2;gradientColor=none;gradientDirection=north;fontStyle=0;html=1;" vertex="1" parent="1">
          <mxGeometry x="255" y="250" width="129" height="87" as="geometry" />
        </mxCell>
        <mxCell id="hKAx5rV73xENZ0CXXmDG-63" style="edgeStyle=orthogonalEdgeStyle;rounded=0;orthogonalLoop=1;jettySize=auto;html=1;exitX=0.5;exitY=0;exitDx=0;exitDy=0;exitPerimeter=0;entryX=1;entryY=0.5;entryDx=0;entryDy=0;" edge="1" parent="1" source="hKAx5rV73xENZ0CXXmDG-59" target="hKAx5rV73xENZ0CXXmDG-55">
          <mxGeometry relative="1" as="geometry" />
        </mxCell>
        <mxCell id="hKAx5rV73xENZ0CXXmDG-66" style="edgeStyle=orthogonalEdgeStyle;rounded=0;orthogonalLoop=1;jettySize=auto;html=1;entryX=0.5;entryY=0;entryDx=0;entryDy=0;entryPerimeter=0;" edge="1" parent="1" source="hKAx5rV73xENZ0CXXmDG-59" target="hKAx5rV73xENZ0CXXmDG-81">
          <mxGeometry relative="1" as="geometry">
            <mxPoint x="510.5" y="380" as="targetPoint" />
          </mxGeometry>
        </mxCell>
        <mxCell id="hKAx5rV73xENZ0CXXmDG-59" value="Efetuar&lt;div&gt;pagamento ?&lt;/div&gt;" style="shape=mxgraph.flowchart.decision;strokeWidth=2;gradientColor=none;gradientDirection=north;fontStyle=0;html=1;" vertex="1" parent="1">
          <mxGeometry x="446" y="250" width="129" height="87" as="geometry" />
        </mxCell>
        <mxCell id="hKAx5rV73xENZ0CXXmDG-61" style="edgeStyle=orthogonalEdgeStyle;rounded=0;orthogonalLoop=1;jettySize=auto;html=1;exitX=1;exitY=0.5;exitDx=0;exitDy=0;exitPerimeter=0;entryX=0;entryY=0.5;entryDx=0;entryDy=0;entryPerimeter=0;" edge="1" parent="1" source="hKAx5rV73xENZ0CXXmDG-57" target="hKAx5rV73xENZ0CXXmDG-59">
          <mxGeometry relative="1" as="geometry" />
        </mxCell>
        <mxCell id="hKAx5rV73xENZ0CXXmDG-62" value="Sim" style="text;fontStyle=0;html=1;strokeColor=none;gradientColor=none;fillColor=none;strokeWidth=2;" vertex="1" parent="1">
          <mxGeometry x="399.5" y="270" width="40" height="26" as="geometry" />
        </mxCell>
        <mxCell id="hKAx5rV73xENZ0CXXmDG-64" value="Não" style="text;fontStyle=0;html=1;strokeColor=none;gradientColor=none;fillColor=none;strokeWidth=2;" vertex="1" parent="1">
          <mxGeometry x="514" y="150" width="40" height="26" as="geometry" />
        </mxCell>
        <mxCell id="hKAx5rV73xENZ0CXXmDG-67" value="Sim" style="text;fontStyle=0;html=1;strokeColor=none;gradientColor=none;fillColor=none;strokeWidth=2;" vertex="1" parent="1">
          <mxGeometry x="512" y="341" width="40" height="26" as="geometry" />
        </mxCell>
        <mxCell id="hKAx5rV73xENZ0CXXmDG-78" value="Todos os pagamentos estão em dia" style="rounded=1;whiteSpace=wrap;html=1;" vertex="1" parent="1">
          <mxGeometry x="259.5" y="384" width="120" height="60" as="geometry" />
        </mxCell>
        <mxCell id="hKAx5rV73xENZ0CXXmDG-85" style="edgeStyle=orthogonalEdgeStyle;rounded=0;orthogonalLoop=1;jettySize=auto;html=1;exitX=0.5;exitY=1;exitDx=0;exitDy=0;exitPerimeter=0;" edge="1" parent="1" source="hKAx5rV73xENZ0CXXmDG-81" target="hKAx5rV73xENZ0CXXmDG-84">
          <mxGeometry relative="1" as="geometry" />
        </mxCell>
        <mxCell id="hKAx5rV73xENZ0CXXmDG-86" style="edgeStyle=orthogonalEdgeStyle;rounded=0;orthogonalLoop=1;jettySize=auto;html=1;exitX=1;exitY=0.5;exitDx=0;exitDy=0;exitPerimeter=0;entryX=0.5;entryY=0;entryDx=0;entryDy=0;" edge="1" parent="1" source="hKAx5rV73xENZ0CXXmDG-81" target="hKAx5rV73xENZ0CXXmDG-83">
          <mxGeometry relative="1" as="geometry" />
        </mxCell>
        <mxCell id="hKAx5rV73xENZ0CXXmDG-81" value="Pagamento&lt;div&gt;parcelado ?&lt;/div&gt;" style="shape=mxgraph.flowchart.decision;strokeWidth=2;gradientColor=none;gradientDirection=north;fontStyle=0;html=1;" vertex="1" parent="1">
          <mxGeometry x="446" y="384" width="129" height="87" as="geometry" />
        </mxCell>
        <mxCell id="hKAx5rV73xENZ0CXXmDG-87" style="edgeStyle=orthogonalEdgeStyle;rounded=0;orthogonalLoop=1;jettySize=auto;html=1;exitX=0.5;exitY=1;exitDx=0;exitDy=0;entryX=1;entryY=0.5;entryDx=0;entryDy=0;" edge="1" parent="1" source="hKAx5rV73xENZ0CXXmDG-83" target="hKAx5rV73xENZ0CXXmDG-84">
          <mxGeometry relative="1" as="geometry" />
        </mxCell>
        <mxCell id="hKAx5rV73xENZ0CXXmDG-83" value="Selecionar parcela para pagamento" style="rounded=1;whiteSpace=wrap;html=1;" vertex="1" parent="1">
          <mxGeometry x="610" y="460" width="120" height="60" as="geometry" />
        </mxCell>
        <mxCell id="hKAx5rV73xENZ0CXXmDG-84" value="Efetuar pagamento" style="rounded=1;whiteSpace=wrap;html=1;" vertex="1" parent="1">
          <mxGeometry x="450.5" y="520" width="120" height="60" as="geometry" />
        </mxCell>
        <mxCell id="hKAx5rV73xENZ0CXXmDG-88" value="Sim" style="text;fontStyle=0;html=1;strokeColor=none;gradientColor=none;fillColor=none;strokeWidth=2;" vertex="1" parent="1">
          <mxGeometry x="620" y="401" width="40" height="26" as="geometry" />
        </mxCell>
        <mxCell id="hKAx5rV73xENZ0CXXmDG-89" value="Não" style="text;fontStyle=0;html=1;strokeColor=none;gradientColor=none;fillColor=none;strokeWidth=2;" vertex="1" parent="1">
          <mxGeometry x="514" y="480" width="40" height="26" as="geometry" />
        </mxCell>
        <mxCell id="hKAx5rV73xENZ0CXXmDG-95" style="edgeStyle=orthogonalEdgeStyle;rounded=0;orthogonalLoop=1;jettySize=auto;html=1;" edge="1" parent="1" source="hKAx5rV73xENZ0CXXmDG-90" target="hKAx5rV73xENZ0CXXmDG-92">
          <mxGeometry relative="1" as="geometry">
            <Array as="points">
              <mxPoint x="319" y="620" />
              <mxPoint x="300" y="620" />
            </Array>
          </mxGeometry>
        </mxCell>
        <mxCell id="hKAx5rV73xENZ0CXXmDG-97" style="edgeStyle=orthogonalEdgeStyle;rounded=0;orthogonalLoop=1;jettySize=auto;html=1;entryX=0.5;entryY=0;entryDx=0;entryDy=0;" edge="1" parent="1" source="hKAx5rV73xENZ0CXXmDG-90" target="hKAx5rV73xENZ0CXXmDG-93">
          <mxGeometry relative="1" as="geometry">
            <Array as="points">
              <mxPoint x="319" y="620" />
              <mxPoint x="480" y="620" />
            </Array>
          </mxGeometry>
        </mxCell>
        <mxCell id="hKAx5rV73xENZ0CXXmDG-90" value="Pagamento&lt;div&gt;efetuado até à data&lt;/div&gt;&lt;div&gt;de entrega ?&lt;/div&gt;" style="shape=mxgraph.flowchart.decision;strokeWidth=2;gradientColor=none;gradientDirection=north;fontStyle=0;html=1;" vertex="1" parent="1">
          <mxGeometry x="255" y="506" width="129" height="87" as="geometry" />
        </mxCell>
        <mxCell id="hKAx5rV73xENZ0CXXmDG-91" style="edgeStyle=orthogonalEdgeStyle;rounded=0;orthogonalLoop=1;jettySize=auto;html=1;exitX=0;exitY=0.5;exitDx=0;exitDy=0;entryX=1;entryY=0.5;entryDx=0;entryDy=0;entryPerimeter=0;" edge="1" parent="1" source="hKAx5rV73xENZ0CXXmDG-84" target="hKAx5rV73xENZ0CXXmDG-90">
          <mxGeometry relative="1" as="geometry" />
        </mxCell>
        <mxCell id="hKAx5rV73xENZ0CXXmDG-92" value="Confirmação de pagamento" style="rounded=1;whiteSpace=wrap;html=1;" vertex="1" parent="1">
          <mxGeometry x="240" y="640" width="120" height="60" as="geometry" />
        </mxCell>
        <mxCell id="hKAx5rV73xENZ0CXXmDG-93" value="Notificação de atraso de pagamento" style="rounded=1;whiteSpace=wrap;html=1;" vertex="1" parent="1">
          <mxGeometry x="420" y="640" width="120" height="60" as="geometry" />
        </mxCell>
        <mxCell id="hKAx5rV73xENZ0CXXmDG-94" style="edgeStyle=orthogonalEdgeStyle;rounded=0;orthogonalLoop=1;jettySize=auto;html=1;entryX=0;entryY=0.5;entryDx=0;entryDy=0;entryPerimeter=0;" edge="1" parent="1" source="hKAx5rV73xENZ0CXXmDG-78" target="40">
          <mxGeometry relative="1" as="geometry">
            <Array as="points">
              <mxPoint x="200" y="414" />
              <mxPoint x="200" y="785" />
            </Array>
          </mxGeometry>
        </mxCell>
        <mxCell id="hKAx5rV73xENZ0CXXmDG-98" value="Sim" style="text;fontStyle=0;html=1;strokeColor=none;gradientColor=none;fillColor=none;strokeWidth=2;" vertex="1" parent="1">
          <mxGeometry x="276" y="598" width="40" height="26" as="geometry" />
        </mxCell>
        <mxCell id="hKAx5rV73xENZ0CXXmDG-99" value="Não" style="text;fontStyle=0;html=1;strokeColor=none;gradientColor=none;fillColor=none;strokeWidth=2;" vertex="1" parent="1">
          <mxGeometry x="406" y="595" width="40" height="26" as="geometry" />
        </mxCell>
        <mxCell id="hKAx5rV73xENZ0CXXmDG-100" style="edgeStyle=orthogonalEdgeStyle;rounded=0;orthogonalLoop=1;jettySize=auto;html=1;entryX=0.5;entryY=0;entryDx=0;entryDy=0;entryPerimeter=0;" edge="1" parent="1" source="hKAx5rV73xENZ0CXXmDG-93" target="40">
          <mxGeometry relative="1" as="geometry" />
        </mxCell>
        <mxCell id="hKAx5rV73xENZ0CXXmDG-101" style="edgeStyle=orthogonalEdgeStyle;rounded=0;orthogonalLoop=1;jettySize=auto;html=1;entryX=0.5;entryY=0;entryDx=0;entryDy=0;entryPerimeter=0;" edge="1" parent="1" source="hKAx5rV73xENZ0CXXmDG-92" target="40">
          <mxGeometry relative="1" as="geometry" />
        </mxCell>
      </root>
    </mxGraphModel>
  </diagram>
</mxfile>
